<?xml version="1.0" encoding="UTF-8" standalone="no"?>
<!-- Created with Inkscape (http://www.inkscape.org/) -->

<svg
   width="300mm"
   height="200mm"
   viewBox="0 0 300 200"
   version="1.1"
   id="svg5"
   sodipodi:docname="interface.svg"
   inkscape:version="1.2.2 (b0a8486541, 2022-12-01)"
   inkscape:export-filename="interface.png"
   inkscape:export-xdpi="96"
   inkscape:export-ydpi="96"
   xmlns:inkscape="http://www.inkscape.org/namespaces/inkscape"
   xmlns:sodipodi="http://sodipodi.sourceforge.net/DTD/sodipodi-0.dtd"
   xmlns:xlink="http://www.w3.org/1999/xlink"
   xmlns="http://www.w3.org/2000/svg"
   xmlns:svg="http://www.w3.org/2000/svg">
  <sodipodi:namedview
     id="namedview7"
     pagecolor="#ffffff"
     bordercolor="#000000"
     borderopacity="0.25"
     inkscape:showpageshadow="2"
     inkscape:pageopacity="0.0"
     inkscape:pagecheckerboard="0"
     inkscape:deskcolor="#d1d1d1"
     inkscape:document-units="mm"
     showgrid="false"
     inkscape:zoom="1.2938725"
     inkscape:cx="560.71986"
     inkscape:cy="204.03865"
     inkscape:window-width="2849"
     inkscape:window-height="1723"
     inkscape:window-x="572"
     inkscape:window-y="225"
     inkscape:window-maximized="0"
     inkscape:current-layer="layer1" />
  <defs
     id="defs2">
    <linearGradient
       id="linearGradient13404"
       inkscape:swatch="solid">
      <stop
         style="stop-color:#e6e6e6;stop-opacity:1;"
         offset="0"
         id="stop13402" />
    </linearGradient>
    <clipPath
       id="clipPath8201">
      <path
         clip-rule="nonzero"
         d="m 19,2 h 5 v 9.996094 h -5 z m 0,0"
         id="path7674" />
    </clipPath>
    <clipPath
       id="clipPath6468">
      <path
         clip-rule="nonzero"
         d="m 22,3 h 6 v 11.390625 h -6 z m 0,0"
         id="path2917" />
    </clipPath>
    <clipPath
       id="clipPath1207">
      <path
         clip-rule="nonzero"
         d="m 15,3 h 6 v 11.390625 h -6 z m 0,0"
         id="path1274" />
    </clipPath>
    <clipPath
       id="clipPath6298">
      <path
         clip-rule="nonzero"
         d="m 14,3 h 5 v 11.390625 h -5 z m 0,0"
         id="path4983" />
    </clipPath>
    <clipPath
       id="clipPath2165">
      <path
         clip-rule="nonzero"
         d="m 21,3 h 6 v 11.390625 h -6 z m 0,0"
         id="path4495" />
    </clipPath>
    <clipPath
       id="clipPath3957">
      <path
         clip-rule="nonzero"
         d="m 18,15 h 6 v 11.589844 h -6 z m 0,0"
         id="path1828" />
    </clipPath>
    <clipPath
       id="clipPath2535">
      <path
         clip-rule="nonzero"
         d="m 11,15 h 6 v 11.589844 h -6 z m 0,0"
         id="path4761" />
    </clipPath>
    <clipPath
       id="clipPath1764">
      <path
         clip-rule="nonzero"
         d="m 28,15 h 4 v 8.238281 h -4 z m 0,0"
         id="path8631" />
    </clipPath>
    <clipPath
       id="clipPath8697">
      <path
         clip-rule="nonzero"
         d="m 11,14 h 6 v 11.90625 h -6 z m 0,0"
         id="path2634" />
    </clipPath>
    <clipPath
       id="clipPath8010">
      <path
         clip-rule="nonzero"
         d="m 18,14 h 6 v 11.90625 h -6 z m 0,0"
         id="path3256" />
    </clipPath>
    <clipPath
       id="clipPath3690">
      <path
         clip-rule="nonzero"
         d="M 27,3 H 46 V 15.484375 H 27 Z m 0,0"
         id="path2697" />
    </clipPath>
    <clipPath
       id="clipPath67">
      <path
         clip-rule="nonzero"
         d="M 20,3 H 39 V 15.484375 H 20 Z m 0,0"
         id="path3600" />
    </clipPath>
    <linearGradient
       inkscape:collect="always"
       xlink:href="#linearGradient13404"
       id="linearGradient13406"
       x1="32.789948"
       y1="81.0786"
       x2="93.377697"
       y2="81.0786"
       gradientUnits="userSpaceOnUse"
       gradientTransform="matrix(1.3892811,0,0,1.3892811,-20.78192,-17.750801)" />
    <linearGradient
       inkscape:collect="always"
       xlink:href="#linearGradient13404"
       id="linearGradient13446"
       gradientUnits="userSpaceOnUse"
       x1="32.789948"
       y1="81.0786"
       x2="93.377697"
       y2="81.0786"
       gradientTransform="matrix(1.3118807,0,0,1.3892811,152.97473,-17.736197)" />
    <clipPath
       id="clipPath3139">
      <path
         clip-rule="nonzero"
         d="m 96,33 h 4 v 7.96875 h -4 z m 0,0"
         id="path7152" />
    </clipPath>
  </defs>
  <g
     inkscape:label="Layer 1"
     inkscape:groupmode="layer"
     id="layer1">
    <rect
       style="opacity:0.498968;fill:url(#linearGradient13406);fill-opacity:1;stroke:none;stroke-width:1.52821;stroke-dasharray:none;stroke-opacity:1"
       id="rect13348"
       width="84.173416"
       height="160.59323"
       x="24.772533"
       y="14.593544"
       ry="0" />
    <rect
       style="opacity:0.498968;fill:url(#linearGradient13446);fill-opacity:1;stroke:none;stroke-width:1.48503;stroke-dasharray:none;stroke-opacity:1"
       id="rect13348-5"
       width="79.483894"
       height="160.59323"
       x="195.99123"
       y="14.608148"
       ry="0" />
    <rect
       style="opacity:0.498968;fill:#fff99e;fill-opacity:1;stroke:none;stroke-width:1.5297;stroke-dasharray:none;stroke-opacity:1"
       id="rect13348-5-2"
       width="84.385635"
       height="160.49957"
       x="110.41022"
       y="14.580632"
       ry="0" />
    <path
       style="fill:#000000;fill-opacity:1;fill-rule:evenodd;stroke-width:0.189069"
       id="path234"
       sodipodi:type="arc"
       sodipodi:cx="17.481138"
       sodipodi:cy="97.710747"
       sodipodi:rx="6.5470414"
       sodipodi:ry="6.4650083"
       sodipodi:start="0.00038649048"
       sodipodi:end="0.00029008302"
       sodipodi:open="true"
       sodipodi:arc-type="arc"
       d="m 24.028179,97.713245 a 6.5470414,6.4650083 0 0 1 -6.549413,6.462505 6.5470414,6.4650083 0 0 1 -6.544669,-6.46719 6.5470414,6.4650083 0 0 1 6.549098,-6.462821 6.5470414,6.4650083 0 0 1 6.544984,6.466883" />
    <path
       style="fill:#000000;fill-opacity:1;fill-rule:evenodd;stroke-width:0.189069"
       id="path234-5"
       sodipodi:type="arc"
       sodipodi:cx="281.94562"
       sodipodi:cy="97.37561"
       sodipodi:rx="6.5470414"
       sodipodi:ry="6.4650083"
       sodipodi:start="0.00038649048"
       sodipodi:end="0.00029008302"
       sodipodi:open="true"
       sodipodi:arc-type="arc"
       d="m 288.49266,97.378109 a 6.5470414,6.4650083 0 0 1 -6.54941,6.462511 6.5470414,6.4650083 0 0 1 -6.54467,-6.467197 6.5470414,6.4650083 0 0 1 6.54909,-6.462821 6.5470414,6.4650083 0 0 1 6.54499,6.466884" />
    <path
       style="opacity:0.409857;fill:none;fill-opacity:1;stroke:#000000;stroke-width:2.10969;stroke-dasharray:none;stroke-opacity:1"
       d="m 23.900943,98.352477 25.853841,0.09146 3.732028,-2.166312 2.838727,3.43417 4.525745,-3.145661 3.162102,3.128557 3.773735,-2.921205 3.465242,2.77347 2.957268,-3.054916 2.956136,1.725202 31.841573,-0.07487"
       id="path1015"
       sodipodi:nodetypes="ccccccccccc" />
    <path
       style="opacity:0.409857;fill:none;fill-opacity:1;stroke:#000000;stroke-width:2.10969;stroke-dasharray:none;stroke-opacity:1"
       d="m 110.70365,98.260956 25.85384,0.09146 3.73203,-2.166312 2.83873,3.43417 4.52575,-3.14566 3.1621,3.128556 3.77373,-2.921205 3.46525,2.773471 2.95726,-3.054917 2.95614,1.725202 31.84157,-0.07487"
       id="path1015-3"
       sodipodi:nodetypes="ccccccccccc" />
    <path
       style="opacity:0.409857;fill:none;fill-opacity:1;stroke:#000000;stroke-width:2.10969;stroke-dasharray:none;stroke-opacity:1"
       d="m 195.50338,98.025342 25.85384,0.09146 3.73203,-2.166311 2.83873,3.434169 4.52575,-3.14566 3.1621,3.128557 3.77373,-2.921205 3.46524,2.77347 2.95727,-3.054917 2.95614,1.725203 31.84157,-0.07487"
       id="path1015-3-7"
       sodipodi:nodetypes="ccccccccccc" />
    <path
       style="opacity:1;fill:none;fill-opacity:1;stroke:#ff0000;stroke-width:1.52821;stroke-dasharray:none;stroke-opacity:1"
       d="m 109.57179,14.573752 0.40648,160.341218"
       id="path1179" />
    <path
       style="fill:none;fill-opacity:1;stroke:#ff0000;stroke-width:1.52821;stroke-dasharray:none;stroke-opacity:1"
       d="m 195.26872,14.775952 0.40647,160.341228"
       id="path1179-6" />
    <g
       inkscape:label=""
       transform="matrix(1.3892811,0,0,1.3892811,13.976242,81.430127)"
       id="g4880">
      <g
         fill="#000000"
         fill-opacity="1"
         id="g4870"
         transform="matrix(0.352778,0,0,0.352778,-0.237023,0.0881504)">
        <g
           id="g4868"
           transform="translate(0,10.672)">
          <path
             d="M 8.453125,-1.4375 C 8.765625,-0.046875 9.96875,0.25 10.5625,0.25 c 0.78125,0 1.375,-0.515625 1.78125,-1.359375 0.421875,-0.890625 0.734375,-2.359375 0.734375,-2.4375 0,-0.125 -0.09375,-0.21875 -0.234375,-0.21875 -0.234375,0 -0.25,0.125 -0.359375,0.5 -0.4375,1.703125 -0.890625,3.015625 -1.875,3.015625 -0.75,0 -0.75,-0.8125 -0.75,-1.140625 0,-0.5625 0.078125,-0.8125 0.328125,-1.859375 0.171875,-0.671875 0.34375,-1.328125 0.5,-2.03125 l 1.015625,-4.03125 c 0.171875,-0.625 0.171875,-0.671875 0.171875,-0.75 0,-0.375 -0.296875,-0.625 -0.671875,-0.625 -0.71875,0 -0.890625,0.625 -1.046875,1.25 -0.25,0.96875 -1.578125,6.296875 -1.75,7.15625 -0.03125,0 -1,2.03125 -2.8125,2.03125 -1.28125,0 -1.53125,-1.109375 -1.53125,-2.03125 0,-1.40625 0.703125,-3.390625 1.34375,-5.046875 0.296875,-0.796875 0.421875,-1.125 0.421875,-1.625 0,-1.0625 -0.765625,-1.96875 -1.96875,-1.96875 -2.265625,0 -3.1875,3.59375 -3.1875,3.78125 0,0.109375 0.09375,0.234375 0.265625,0.234375 0.234375,0 0.25,-0.109375 0.34375,-0.453125 0.609375,-2.125 1.5625,-3.078125 2.515625,-3.078125 0.25,0 0.640625,0.03125 0.640625,0.828125 0,0.640625 -0.28125,1.359375 -0.640625,2.296875 -1.09375,2.953125 -1.21875,3.890625 -1.21875,4.640625 C 2.578125,-0.15625 4.484375,0.25 5.5,0.25 c 1.59375,0 2.453125,-1.09375 2.953125,-1.6875 z m 0,0"
             id="path4866" />
        </g>
      </g>
      <g
         clip-path="url(#clipPath6298)"
         id="g4878"
         transform="matrix(0.352778,0,0,0.352778,-0.237023,0.0881504)">
        <g
           fill="#000000"
           fill-opacity="1"
           id="g4876">
          <g
             id="g4874"
             transform="translate(13.813,14.39)">
            <path
               d="m 4.875,-2.46875 c 0,-0.078125 -0.078125,-0.15625 -0.171875,-0.15625 -0.15625,0 -0.171875,0.0625 -0.265625,0.359375 -0.4375,1.5625 -1.15625,2.09375 -1.71875,2.09375 -0.203125,0 -0.453125,-0.046875 -0.453125,-0.5625 0,-0.46875 0.21875,-0.984375 0.40625,-1.5 L 3.875,-5.4375 c 0.046875,-0.140625 0.171875,-0.453125 0.171875,-0.78125 0,-0.71875 -0.515625,-1.375 -1.359375,-1.375 -1.578125,0 -2.21875,2.5 -2.21875,2.640625 0,0.0625 0.0625,0.15625 0.1875,0.15625 0.15625,0 0.171875,-0.078125 0.234375,-0.3125 C 1.3125,-6.5625 1.96875,-7.25 2.640625,-7.25 c 0.15625,0 0.4375,0.015625 0.4375,0.5625 0,0.453125 -0.21875,1.015625 -0.359375,1.40625 L 1.515625,-2.078125 C 1.40625,-1.8125 1.3125,-1.53125 1.3125,-1.21875 c 0,0.765625 0.53125,1.390625 1.359375,1.390625 C 4.25,0.171875 4.875,-2.34375 4.875,-2.46875 Z M 4.734375,-10.75 c 0,-0.25 -0.203125,-0.5625 -0.578125,-0.5625 -0.40625,0 -0.84375,0.375 -0.84375,0.828125 0,0.421875 0.359375,0.5625 0.5625,0.5625 0.46875,0 0.859375,-0.4375 0.859375,-0.828125 z m 0,0"
               id="path4872" />
          </g>
        </g>
      </g>
    </g>
    <g
       inkscape:label=""
       transform="matrix(1.3892811,0,0,1.3892811,12.163452,107.72979)"
       id="g4986">
      <g
         fill="#000000"
         fill-opacity="1"
         id="g4976"
         transform="matrix(0.352778,0,0,0.352778,-0.237023,0.0881504)">
        <g
           id="g4974"
           transform="translate(0,10.672)">
          <path
             d="M 5.109375,-7.265625 C 5.15625,-7.40625 5.78125,-8.65625 6.6875,-9.4375 c 0.640625,-0.59375 1.484375,-1 2.453125,-1 1,0 1.34375,0.75 1.34375,1.734375 0,0.15625 0,0.65625 -0.296875,1.8125 l -0.625,2.546875 c -0.1875,0.75 -0.671875,2.578125 -0.71875,2.859375 -0.09375,0.375 -0.25,1.015625 -0.25,1.109375 0,0.34375 0.28125,0.625 0.65625,0.625 0.734375,0 0.859375,-0.578125 1.078125,-1.46875 l 1.5,-5.921875 c 0.04687,-0.1875 1.328125,-3.296875 4.0625,-3.296875 0.984375,0 1.328125,0.75 1.328125,1.734375 0,1.390625 -0.96875,4.09375 -1.5,5.578125 -0.234375,0.59375 -0.359375,0.921875 -0.359375,1.359375 0,1.125 0.765625,2.015625 1.96875,2.015625 C 19.625,0.25 20.5,-3.390625 20.5,-3.546875 c 0,-0.125 -0.109375,-0.21875 -0.25,-0.21875 -0.234375,0 -0.25,0.078125 -0.375,0.5 C 19.296875,-1.28125 18.390625,-0.25 17.390625,-0.25 17.15625,-0.25 16.75,-0.265625 16.75,-1.0625 c 0,-0.640625 0.296875,-1.4375 0.40625,-1.71875 0.4375,-1.1875 1.546875,-4.109375 1.546875,-5.546875 0,-1.484375 -0.859375,-2.59375 -2.75,-2.59375 -1.65625,0 -3,0.9375 -3.984375,2.390625 -0.07813,-1.328125 -0.890625,-2.390625 -2.75,-2.390625 -2.203125,0 -3.375,1.546875 -3.8125,2.171875 -0.078125,-1.40625 -1.09375,-2.171875 -2.1875,-2.171875 -0.71875,0 -1.28125,0.34375 -1.75,1.28125 -0.453125,0.890625 -0.796875,2.40625 -0.796875,2.5 0,0.109375 0.09375,0.234375 0.265625,0.234375 0.203125,0 0.234375,-0.03125 0.375,-0.609375 0.375,-1.453125 0.84375,-2.921875 1.828125,-2.921875 0.578125,0 0.78125,0.40625 0.78125,1.140625 0,0.546875 -0.25,1.515625 -0.421875,2.28125 L 2.796875,-4.34375 c -0.09375,0.484375 -0.375,1.59375 -0.5,2.046875 C 2.125,-1.65625 1.859375,-0.5 1.859375,-0.375 1.859375,-0.03125 2.125,0.25 2.5,0.25 c 0.296875,0 0.640625,-0.15625 0.84375,-0.515625 0.046875,-0.125 0.28125,-1 0.390625,-1.5 l 0.546875,-2.21875 z m 0,0"
             id="path4972" />
        </g>
      </g>
      <g
         clip-path="url(#clipPath2165)"
         id="g4984"
         transform="matrix(0.352778,0,0,0.352778,-0.237023,0.0881504)">
        <g
           fill="#000000"
           fill-opacity="1"
           id="g4982">
          <g
             id="g4980"
             transform="translate(21.229,14.39)">
            <path
               d="m 4.875,-2.46875 c 0,-0.078125 -0.078125,-0.15625 -0.171875,-0.15625 -0.15625,0 -0.171875,0.0625 -0.265625,0.359375 -0.4375,1.5625 -1.15625,2.09375 -1.71875,2.09375 -0.203125,0 -0.453125,-0.046875 -0.453125,-0.5625 0,-0.46875 0.21875,-0.984375 0.40625,-1.5 L 3.875,-5.4375 c 0.046875,-0.140625 0.171875,-0.453125 0.171875,-0.78125 0,-0.71875 -0.515625,-1.375 -1.359375,-1.375 -1.578125,0 -2.21875,2.5 -2.21875,2.640625 0,0.0625 0.0625,0.15625 0.1875,0.15625 0.15625,0 0.171875,-0.078125 0.234375,-0.3125 C 1.3125,-6.5625 1.96875,-7.25 2.640625,-7.25 c 0.15625,0 0.4375,0.015625 0.4375,0.5625 0,0.453125 -0.21875,1.015625 -0.359375,1.40625 L 1.515625,-2.078125 C 1.40625,-1.8125 1.3125,-1.53125 1.3125,-1.21875 c 0,0.765625 0.53125,1.390625 1.359375,1.390625 C 4.25,0.171875 4.875,-2.34375 4.875,-2.46875 Z M 4.734375,-10.75 c 0,-0.25 -0.203125,-0.5625 -0.578125,-0.5625 -0.40625,0 -0.84375,0.375 -0.84375,0.828125 0,0.421875 0.359375,0.5625 0.5625,0.5625 0.46875,0 0.859375,-0.4375 0.859375,-0.828125 z m 0,0"
               id="path4978" />
          </g>
        </g>
      </g>
    </g>
    <g
       inkscape:label=""
       transform="matrix(1.3892811,0,0,1.3892811,57.654858,106.88719)"
       id="g6528">
      <g
         fill="#000000"
         fill-opacity="1"
         id="g20"
         transform="matrix(0.352778,0,0,0.352778,-0.413411,-1.09119)">
        <g
           id="use18"
           transform="translate(0,20.014999)">
          <path
             d="m 9.125,-15.234375 c 0.21875,-0.921875 0.3125,-0.96875 1.28125,-0.96875 h 1.78125 c 2.140625,0 3.71875,0.640625 3.71875,2.578125 0,1.265625 -0.640625,4.90625 -5.625,4.90625 H 7.484375 Z m 3.4375,6.8125 c 3.078125,-0.671875 5.484375,-2.65625 5.484375,-4.78125 0,-1.9375 -1.96875,-3.71875 -5.40625,-3.71875 h -6.71875 c -0.5,0 -0.71875,0 -0.71875,0.46875 0,0.25 0.171875,0.25 0.640625,0.25 1.484375,0 1.484375,0.1875 1.484375,0.46875 0,0.04687 0,0.203125 -0.09375,0.5625 l -3.34375,13.34375 C 3.671875,-0.96875 3.625,-0.71875 1.90625,-0.71875 c -0.5625,0 -0.734375,0 -0.734375,0.46875 0,0.25 0.265625,0.25 0.34375,0.25 0.4375,0 0.96875,-0.046875 1.4375,-0.046875 H 5.875 C 6.3125,-0.046875 6.84375,0 7.28125,0 7.484375,0 7.75,0 7.75,-0.46875 c 0,-0.25 -0.21875,-0.25 -0.59375,-0.25 -1.5,0 -1.5,-0.203125 -1.5,-0.453125 0,-0.015625 0,-0.1875 0.046875,-0.390625 l 1.65625,-6.671875 h 2.96875 c 2.359375,0 2.8125,1.5 2.8125,2.3125 0,0.375 -0.25,1.34375 -0.421875,1.984375 -0.28125,1.140625 -0.359375,1.40625 -0.359375,1.875 0,1.765625 1.4375,2.578125 3.109375,2.578125 2,0 2.875,-2.453125 2.875,-2.796875 0,-0.171875 -0.125,-0.25 -0.28125,-0.25 -0.1875,0 -0.25,0.15625 -0.296875,0.34375 -0.59375,1.765625 -1.609375,2.21875 -2.234375,2.21875 -0.609375,0 -1.015625,-0.28125 -1.015625,-1.390625 0,-0.59375 0.296875,-2.859375 0.328125,-2.984375 0.125,-0.90625 0.125,-1.015625 0.125,-1.203125 0,-1.8125 -1.46875,-2.578125 -2.40625,-2.875 z m 0,0"
             id="path36" />
        </g>
      </g>
      <g
         fill="#000000"
         fill-opacity="1"
         id="g24"
         transform="matrix(0.352778,0,0,0.352778,-0.413411,-1.09119)">
        <g
           id="use22"
           transform="translate(18.677999,10.043)">
          <path
             d="m 11.34375,-3.953125 c 0.296875,0 0.609375,0 0.609375,-0.359375 0,-0.34375 -0.3125,-0.34375 -0.609375,-0.34375 h -9.3125 c -0.296875,0 -0.609375,0 -0.609375,0.34375 0,0.359375 0.3125,0.359375 0.609375,0.359375 z m 0,0"
             id="path40" />
        </g>
      </g>
      <g
         clip-path="url(#clipPath3957)"
         id="g30"
         transform="matrix(0.352778,0,0,0.352778,-0.413411,-1.09119)">
        <g
           fill="#000000"
           fill-opacity="1"
           id="g28">
          <g
             id="use26"
             transform="translate(18.474001,26.589001)">
            <path
               d="m 4.875,-2.46875 c 0,-0.078125 -0.078125,-0.15625 -0.171875,-0.15625 -0.15625,0 -0.171875,0.0625 -0.265625,0.359375 -0.4375,1.5625 -1.15625,2.09375 -1.71875,2.09375 -0.203125,0 -0.453125,-0.046875 -0.453125,-0.5625 0,-0.46875 0.21875,-0.984375 0.40625,-1.5 L 3.875,-5.4375 c 0.046875,-0.140625 0.171875,-0.453125 0.171875,-0.78125 0,-0.71875 -0.515625,-1.375 -1.359375,-1.375 -1.578125,0 -2.21875,2.5 -2.21875,2.640625 0,0.0625 0.0625,0.15625 0.1875,0.15625 0.15625,0 0.171875,-0.078125 0.234375,-0.3125 C 1.3125,-6.5625 1.96875,-7.25 2.640625,-7.25 c 0.15625,0 0.4375,0.015625 0.4375,0.5625 0,0.453125 -0.21875,1.015625 -0.359375,1.40625 L 1.515625,-2.078125 C 1.40625,-1.8125 1.3125,-1.53125 1.3125,-1.21875 c 0,0.765625 0.53125,1.390625 1.359375,1.390625 C 4.25,0.171875 4.875,-2.34375 4.875,-2.46875 Z M 4.734375,-10.75 c 0,-0.25 -0.203125,-0.5625 -0.578125,-0.5625 -0.40625,0 -0.84375,0.375 -0.84375,0.828125 0,0.421875 0.359375,0.5625 0.5625,0.5625 0.46875,0 0.859375,-0.4375 0.859375,-0.828125 z m 0,0"
               id="path44" />
          </g>
        </g>
      </g>
    </g>
    <g
       inkscape:label=""
       transform="matrix(1.3892811,0,0,1.3892811,93.048464,80.809082)"
       id="g7383">
      <g
         fill="#000000"
         fill-opacity="1"
         id="g7367"
         transform="matrix(0.352778,0,0,0.352778,-0.347266,-0.903772)">
        <g
           id="g7365"
           transform="translate(0,20.014999)">
          <path
             d="m 10.984375,-12.46875 c 0,-2.53125 -0.796875,-4.984375 -2.828125,-4.984375 -3.46875,0 -7.171875,7.265625 -7.171875,12.71875 0,1.140625 0.25,4.984375 2.859375,4.984375 3.375,0 7.140625,-7.09375 7.140625,-12.71875 z m -7.515625,3.5 c 0.375,-1.46875 0.890625,-3.546875 1.890625,-5.3125 0.8125,-1.484375 1.671875,-2.671875 2.765625,-2.671875 0.828125,0 1.359375,0.703125 1.359375,3.078125 0,0.890625 -0.0625,2.125 -0.78125,4.90625 z m 5.0625,0.734375 c -0.625,2.4375 -1.140625,4 -2.03125,5.5625 C 5.78125,-1.40625 4.90625,-0.25 3.859375,-0.25 c -0.765625,0 -1.375,-0.59375 -1.375,-3.046875 0,-1.609375 0.390625,-3.296875 0.78125,-4.9375 z m 0,0"
             id="path7363" />
        </g>
      </g>
      <g
         fill="#000000"
         fill-opacity="1"
         id="g7373"
         transform="matrix(0.352778,0,0,0.352778,-0.347266,-0.903772)">
        <g
           id="g7371"
           transform="translate(11.985,10.043)">
          <path
             d="m 11.34375,-3.953125 c 0.296875,0 0.609375,0 0.609375,-0.359375 0,-0.34375 -0.3125,-0.34375 -0.609375,-0.34375 h -9.3125 c -0.296875,0 -0.609375,0 -0.609375,0.34375 0,0.359375 0.3125,0.359375 0.609375,0.359375 z m 0,0"
             id="path7369" />
        </g>
      </g>
      <g
         clip-path="url(#clipPath2535)"
         id="g7381"
         transform="matrix(0.352778,0,0,0.352778,-0.347266,-0.903772)">
        <g
           fill="#000000"
           fill-opacity="1"
           id="g7379">
          <g
             id="g7377"
             transform="translate(11.31,26.589001)">
            <path
               d="m 4.875,-2.46875 c 0,-0.078125 -0.078125,-0.15625 -0.171875,-0.15625 -0.15625,0 -0.171875,0.0625 -0.265625,0.359375 -0.4375,1.5625 -1.15625,2.09375 -1.71875,2.09375 -0.203125,0 -0.453125,-0.046875 -0.453125,-0.5625 0,-0.46875 0.21875,-0.984375 0.40625,-1.5 L 3.875,-5.4375 c 0.046875,-0.140625 0.171875,-0.453125 0.171875,-0.78125 0,-0.71875 -0.515625,-1.375 -1.359375,-1.375 -1.578125,0 -2.21875,2.5 -2.21875,2.640625 0,0.0625 0.0625,0.15625 0.1875,0.15625 0.15625,0 0.171875,-0.078125 0.234375,-0.3125 C 1.3125,-6.5625 1.96875,-7.25 2.640625,-7.25 c 0.15625,0 0.4375,0.015625 0.4375,0.5625 0,0.453125 -0.21875,1.015625 -0.359375,1.40625 L 1.515625,-2.078125 C 1.40625,-1.8125 1.3125,-1.53125 1.3125,-1.21875 c 0,0.765625 0.53125,1.390625 1.359375,1.390625 C 4.25,0.171875 4.875,-2.34375 4.875,-2.46875 Z M 4.734375,-10.75 c 0,-0.25 -0.203125,-0.5625 -0.578125,-0.5625 -0.40625,0 -0.84375,0.375 -0.84375,0.828125 0,0.421875 0.359375,0.5625 0.5625,0.5625 0.46875,0 0.859375,-0.4375 0.859375,-0.828125 z m 0,0"
               id="path7375" />
          </g>
        </g>
      </g>
    </g>
    <g
       inkscape:label=""
       transform="matrix(1.3892811,0,0,1.3892811,145.88382,79.590437)"
       id="g8293">
      <g
         fill="#000000"
         fill-opacity="1"
         id="g8277"
         transform="matrix(0.352778,0,0,0.352778,-0.413411,-0.00568845)">
        <g
           id="g8275"
           transform="translate(0,16.938)">
          <path
             d="m 9.125,-15.234375 c 0.21875,-0.921875 0.3125,-0.96875 1.28125,-0.96875 h 1.78125 c 2.140625,0 3.71875,0.640625 3.71875,2.578125 0,1.265625 -0.640625,4.90625 -5.625,4.90625 H 7.484375 Z m 3.4375,6.8125 c 3.078125,-0.671875 5.484375,-2.65625 5.484375,-4.78125 0,-1.9375 -1.96875,-3.71875 -5.40625,-3.71875 h -6.71875 c -0.5,0 -0.71875,0 -0.71875,0.46875 0,0.25 0.171875,0.25 0.640625,0.25 1.484375,0 1.484375,0.1875 1.484375,0.46875 0,0.04687 0,0.203125 -0.09375,0.5625 l -3.34375,13.34375 C 3.671875,-0.96875 3.625,-0.71875 1.90625,-0.71875 c -0.5625,0 -0.734375,0 -0.734375,0.46875 0,0.25 0.265625,0.25 0.34375,0.25 0.4375,0 0.96875,-0.046875 1.4375,-0.046875 H 5.875 C 6.3125,-0.046875 6.84375,0 7.28125,0 7.484375,0 7.75,0 7.75,-0.46875 c 0,-0.25 -0.21875,-0.25 -0.59375,-0.25 -1.5,0 -1.5,-0.203125 -1.5,-0.453125 0,-0.015625 0,-0.1875 0.046875,-0.390625 l 1.65625,-6.671875 h 2.96875 c 2.359375,0 2.8125,1.5 2.8125,2.3125 0,0.375 -0.25,1.34375 -0.421875,1.984375 -0.28125,1.140625 -0.359375,1.40625 -0.359375,1.875 0,1.765625 1.4375,2.578125 3.109375,2.578125 2,0 2.875,-2.453125 2.875,-2.796875 0,-0.171875 -0.125,-0.25 -0.28125,-0.25 -0.1875,0 -0.25,0.15625 -0.296875,0.34375 -0.59375,1.765625 -1.609375,2.21875 -2.234375,2.21875 -0.609375,0 -1.015625,-0.28125 -1.015625,-1.390625 0,-0.59375 0.296875,-2.859375 0.328125,-2.984375 0.125,-0.90625 0.125,-1.015625 0.125,-1.203125 0,-1.8125 -1.46875,-2.578125 -2.40625,-2.875 z m 0,0"
             id="path8273" />
        </g>
      </g>
      <g
         fill="#000000"
         fill-opacity="1"
         id="g8283"
         transform="matrix(0.352778,0,0,0.352778,-0.413411,-0.00568845)">
        <g
           id="g8281"
           transform="translate(18.474001,20.656)">
          <path
             d="m 8.15625,-7.03125 c -0.546875,0.109375 -0.75,0.515625 -0.75,0.84375 0,0.421875 0.328125,0.5625 0.5625,0.5625 0.515625,0 0.875,-0.453125 0.875,-0.921875 0,-0.71875 -0.8125,-1.046875 -1.546875,-1.046875 -1.046875,0 -1.625,1.03125 -1.78125,1.359375 -0.40625,-1.296875 -1.46875,-1.359375 -1.78125,-1.359375 -1.75,0 -2.6875,2.25 -2.6875,2.640625 0,0.0625 0.078125,0.15625 0.1875,0.15625 0.140625,0 0.171875,-0.109375 0.21875,-0.171875 C 2.03125,-6.890625 3.1875,-7.25 3.6875,-7.25 c 0.765625,0 0.921875,0.71875 0.921875,1.140625 0,0.375 -0.09375,0.765625 -0.296875,1.59375 L 3.71875,-2.15625 c -0.25,1.03125 -0.75,1.984375 -1.671875,1.984375 -0.078125,0 -0.515625,0 -0.875,-0.21875 0.625,-0.125 0.75,-0.640625 0.75,-0.84375 0,-0.34375 -0.25,-0.5625 -0.578125,-0.5625 -0.40625,0 -0.859375,0.375 -0.859375,0.921875 0,0.71875 0.8125,1.046875 1.546875,1.046875 0.828125,0 1.40625,-0.65625 1.78125,-1.359375 0.265625,1.015625 1.125,1.359375 1.765625,1.359375 1.75,0 2.6875,-2.25 2.6875,-2.640625 0,-0.078125 -0.0625,-0.15625 -0.171875,-0.15625 -0.15625,0 -0.171875,0.09375 -0.21875,0.234375 -0.46875,1.515625 -1.46875,2.21875 -2.25,2.21875 -0.59375,0 -0.921875,-0.453125 -0.921875,-1.15625 0,-0.375 0.0625,-0.65625 0.34375,-1.78125 l 0.59375,-2.34375 C 5.90625,-6.484375 6.484375,-7.25 7.28125,-7.25 c 0.03125,0 0.515625,0 0.875,0.21875 z m 0,0"
             id="path8279" />
        </g>
      </g>
      <g
         clip-path="url(#clipPath1764)"
         id="g8291"
         transform="matrix(0.352778,0,0,0.352778,-0.413411,-0.00568845)">
        <g
           fill="#000000"
           fill-opacity="1"
           id="g8289">
          <g
             id="g8287"
             transform="translate(28.052999,23.238001)">
            <path
               d="m 3.375,-1.703125 c 0,-0.0625 -0.046875,-0.109375 -0.109375,-0.109375 -0.109375,0 -0.125,0.03125 -0.1875,0.234375 -0.3125,1.09375 -0.796875,1.453125 -1.1875,1.453125 -0.140625,0 -0.3125,-0.03125 -0.3125,-0.390625 0,-0.328125 0.140625,-0.671875 0.28125,-1.03125 L 2.6875,-3.78125 c 0.03125,-0.09375 0.125,-0.3125 0.125,-0.53125 0,-0.5 -0.359375,-0.953125 -0.953125,-0.953125 -1.09375,0 -1.53125,1.734375 -1.53125,1.828125 0,0.046875 0.046875,0.109375 0.125,0.109375 0.109375,0 0.125,-0.046875 0.171875,-0.21875 0.28125,-1 0.734375,-1.484375 1.203125,-1.484375 0.109375,0 0.3125,0.015625 0.3125,0.390625 0,0.3125 -0.15625,0.703125 -0.25,0.96875 l -0.84375,2.21875 C 0.984375,-1.25 0.90625,-1.0625 0.90625,-0.84375 c 0,0.53125 0.375,0.96875 0.953125,0.96875 1.09375,0 1.515625,-1.75 1.515625,-1.828125 z m -0.09375,-5.75 c 0,-0.1875 -0.140625,-0.40625 -0.40625,-0.40625 -0.265625,0 -0.578125,0.265625 -0.578125,0.578125 0,0.296875 0.25,0.390625 0.390625,0.390625 0.328125,0 0.59375,-0.3125 0.59375,-0.5625 z m 0,0"
               id="path8285" />
          </g>
        </g>
      </g>
    </g>
    <g
       inkscape:label=""
       transform="matrix(1.3892811,0,0,1.3892811,199.19702,81.259065)"
       id="g9260">
      <g
         fill="#000000"
         fill-opacity="1"
         id="g9244"
         transform="matrix(0.352778,0,0,0.352778,-0.347266,-0.00440966)">
        <g
           id="g9242"
           transform="translate(0,19.330999)">
          <path
             d="m 10.984375,-12.46875 c 0,-2.53125 -0.796875,-4.984375 -2.828125,-4.984375 -3.46875,0 -7.171875,7.265625 -7.171875,12.71875 0,1.140625 0.25,4.984375 2.859375,4.984375 3.375,0 7.140625,-7.09375 7.140625,-12.71875 z m -7.515625,3.5 c 0.375,-1.46875 0.890625,-3.546875 1.890625,-5.3125 0.8125,-1.484375 1.671875,-2.671875 2.765625,-2.671875 0.828125,0 1.359375,0.703125 1.359375,3.078125 0,0.890625 -0.0625,2.125 -0.78125,4.90625 z m 5.0625,0.734375 c -0.625,2.4375 -1.140625,4 -2.03125,5.5625 C 5.78125,-1.40625 4.90625,-0.25 3.859375,-0.25 c -0.765625,0 -1.375,-0.59375 -1.375,-3.046875 0,-1.609375 0.390625,-3.296875 0.78125,-4.9375 z m 0,0"
             id="path9240" />
        </g>
      </g>
      <g
         fill="#000000"
         fill-opacity="1"
         id="g9250"
         transform="matrix(0.352778,0,0,0.352778,-0.347266,-0.00440966)">
        <g
           id="g9248"
           transform="translate(11.985,9.6999998)">
          <path
             d="m 6.484375,-4 h 4.5625 c 0.25,0 0.546875,0 0.546875,-0.28125 0,-0.3125 -0.28125,-0.3125 -0.546875,-0.3125 h -4.5625 v -4.5625 c 0,-0.25 0,-0.53125 -0.28125,-0.53125 -0.3125,0 -0.3125,0.265625 -0.3125,0.53125 v 4.5625 h -4.5625 c -0.25,0 -0.53125,0 -0.53125,0.28125 C 0.796875,-4 1.0625,-4 1.328125,-4 h 4.5625 v 4.5625 c 0,0.25 0,0.546875 0.296875,0.546875 0.296875,0 0.296875,-0.28125 0.296875,-0.546875 z m 0,0"
             id="path9246" />
        </g>
      </g>
      <g
         clip-path="url(#clipPath8697)"
         id="g9258"
         transform="matrix(0.352778,0,0,0.352778,-0.347266,-0.00440966)">
        <g
           fill="#000000"
           fill-opacity="1"
           id="g9256">
          <g
             id="g9254"
             transform="translate(11.31,25.905001)">
            <path
               d="m 4.875,-2.46875 c 0,-0.078125 -0.078125,-0.15625 -0.171875,-0.15625 -0.15625,0 -0.171875,0.0625 -0.265625,0.359375 -0.4375,1.5625 -1.15625,2.09375 -1.71875,2.09375 -0.203125,0 -0.453125,-0.046875 -0.453125,-0.5625 0,-0.46875 0.21875,-0.984375 0.40625,-1.5 L 3.875,-5.4375 c 0.046875,-0.140625 0.171875,-0.453125 0.171875,-0.78125 0,-0.71875 -0.515625,-1.375 -1.359375,-1.375 -1.578125,0 -2.21875,2.5 -2.21875,2.640625 0,0.0625 0.0625,0.15625 0.1875,0.15625 0.15625,0 0.171875,-0.078125 0.234375,-0.3125 C 1.3125,-6.5625 1.96875,-7.25 2.640625,-7.25 c 0.15625,0 0.4375,0.015625 0.4375,0.5625 0,0.453125 -0.21875,1.015625 -0.359375,1.40625 L 1.515625,-2.078125 C 1.40625,-1.8125 1.3125,-1.53125 1.3125,-1.21875 c 0,0.765625 0.53125,1.390625 1.359375,1.390625 C 4.25,0.171875 4.875,-2.34375 4.875,-2.46875 Z M 4.734375,-10.75 c 0,-0.25 -0.203125,-0.5625 -0.578125,-0.5625 -0.40625,0 -0.84375,0.375 -0.84375,0.828125 0,0.421875 0.359375,0.5625 0.5625,0.5625 0.46875,0 0.859375,-0.4375 0.859375,-0.828125 z m 0,0"
               id="path9252" />
          </g>
        </g>
      </g>
    </g>
    <g
       inkscape:label=""
       transform="matrix(1.3892811,0,0,1.3892811,228.86094,105.46379)"
       id="g10199">
      <g
         fill="#000000"
         fill-opacity="1"
         id="g10183"
         transform="matrix(0.352778,0,0,0.352778,-0.413411,-0.00440966)">
        <g
           id="g10181"
           transform="translate(0,19.330999)">
          <path
             d="m 9.125,-15.234375 c 0.21875,-0.921875 0.3125,-0.96875 1.28125,-0.96875 h 1.78125 c 2.140625,0 3.71875,0.640625 3.71875,2.578125 0,1.265625 -0.640625,4.90625 -5.625,4.90625 H 7.484375 Z m 3.4375,6.8125 c 3.078125,-0.671875 5.484375,-2.65625 5.484375,-4.78125 0,-1.9375 -1.96875,-3.71875 -5.40625,-3.71875 h -6.71875 c -0.5,0 -0.71875,0 -0.71875,0.46875 0,0.25 0.171875,0.25 0.640625,0.25 1.484375,0 1.484375,0.1875 1.484375,0.46875 0,0.04687 0,0.203125 -0.09375,0.5625 l -3.34375,13.34375 C 3.671875,-0.96875 3.625,-0.71875 1.90625,-0.71875 c -0.5625,0 -0.734375,0 -0.734375,0.46875 0,0.25 0.265625,0.25 0.34375,0.25 0.4375,0 0.96875,-0.046875 1.4375,-0.046875 H 5.875 C 6.3125,-0.046875 6.84375,0 7.28125,0 7.484375,0 7.75,0 7.75,-0.46875 c 0,-0.25 -0.21875,-0.25 -0.59375,-0.25 -1.5,0 -1.5,-0.203125 -1.5,-0.453125 0,-0.015625 0,-0.1875 0.046875,-0.390625 l 1.65625,-6.671875 h 2.96875 c 2.359375,0 2.8125,1.5 2.8125,2.3125 0,0.375 -0.25,1.34375 -0.421875,1.984375 -0.28125,1.140625 -0.359375,1.40625 -0.359375,1.875 0,1.765625 1.4375,2.578125 3.109375,2.578125 2,0 2.875,-2.453125 2.875,-2.796875 0,-0.171875 -0.125,-0.25 -0.28125,-0.25 -0.1875,0 -0.25,0.15625 -0.296875,0.34375 -0.59375,1.765625 -1.609375,2.21875 -2.234375,2.21875 -0.609375,0 -1.015625,-0.28125 -1.015625,-1.390625 0,-0.59375 0.296875,-2.859375 0.328125,-2.984375 0.125,-0.90625 0.125,-1.015625 0.125,-1.203125 0,-1.8125 -1.46875,-2.578125 -2.40625,-2.875 z m 0,0"
             id="path10179" />
        </g>
      </g>
      <g
         fill="#000000"
         fill-opacity="1"
         id="g10189"
         transform="matrix(0.352778,0,0,0.352778,-0.413411,-0.00440966)">
        <g
           id="g10187"
           transform="translate(18.677999,9.6999998)">
          <path
             d="m 6.484375,-4 h 4.5625 c 0.25,0 0.546875,0 0.546875,-0.28125 0,-0.3125 -0.28125,-0.3125 -0.546875,-0.3125 h -4.5625 v -4.5625 c 0,-0.25 0,-0.53125 -0.28125,-0.53125 -0.3125,0 -0.3125,0.265625 -0.3125,0.53125 v 4.5625 h -4.5625 c -0.25,0 -0.53125,0 -0.53125,0.28125 C 0.796875,-4 1.0625,-4 1.328125,-4 h 4.5625 v 4.5625 c 0,0.25 0,0.546875 0.296875,0.546875 0.296875,0 0.296875,-0.28125 0.296875,-0.546875 z m 0,0"
             id="path10185" />
        </g>
      </g>
      <g
         clip-path="url(#clipPath8010)"
         id="g10197"
         transform="matrix(0.352778,0,0,0.352778,-0.413411,-0.00440966)">
        <g
           fill="#000000"
           fill-opacity="1"
           id="g10195">
          <g
             id="g10193"
             transform="translate(18.474001,25.905001)">
            <path
               d="m 4.875,-2.46875 c 0,-0.078125 -0.078125,-0.15625 -0.171875,-0.15625 -0.15625,0 -0.171875,0.0625 -0.265625,0.359375 -0.4375,1.5625 -1.15625,2.09375 -1.71875,2.09375 -0.203125,0 -0.453125,-0.046875 -0.453125,-0.5625 0,-0.46875 0.21875,-0.984375 0.40625,-1.5 L 3.875,-5.4375 c 0.046875,-0.140625 0.171875,-0.453125 0.171875,-0.78125 0,-0.71875 -0.515625,-1.375 -1.359375,-1.375 -1.578125,0 -2.21875,2.5 -2.21875,2.640625 0,0.0625 0.0625,0.15625 0.1875,0.15625 0.15625,0 0.171875,-0.078125 0.234375,-0.3125 C 1.3125,-6.5625 1.96875,-7.25 2.640625,-7.25 c 0.15625,0 0.4375,0.015625 0.4375,0.5625 0,0.453125 -0.21875,1.015625 -0.359375,1.40625 L 1.515625,-2.078125 C 1.40625,-1.8125 1.3125,-1.53125 1.3125,-1.21875 c 0,0.765625 0.53125,1.390625 1.359375,1.390625 C 4.25,0.171875 4.875,-2.34375 4.875,-2.46875 Z M 4.734375,-10.75 c 0,-0.25 -0.203125,-0.5625 -0.578125,-0.5625 -0.40625,0 -0.84375,0.375 -0.84375,0.828125 0,0.421875 0.359375,0.5625 0.5625,0.5625 0.46875,0 0.859375,-0.4375 0.859375,-0.828125 z m 0,0"
               id="path10191" />
          </g>
        </g>
      </g>
    </g>
    <g
       inkscape:label=""
       transform="matrix(1.3892811,0,0,1.3892811,273.30161,108.11378)"
       id="g11185">
      <g
         fill="#000000"
         fill-opacity="1"
         id="g23"
         transform="matrix(0.352778,0,0,0.352778,-0.237023,0.0881504)">
        <g
           id="use21"
           transform="translate(0,10.672)">
          <path
             d="M 5.109375,-7.265625 C 5.15625,-7.40625 5.78125,-8.65625 6.6875,-9.4375 c 0.640625,-0.59375 1.484375,-1 2.453125,-1 1,0 1.34375,0.75 1.34375,1.734375 0,0.15625 0,0.65625 -0.296875,1.8125 l -0.625,2.546875 c -0.1875,0.75 -0.671875,2.578125 -0.71875,2.859375 -0.09375,0.375 -0.25,1.015625 -0.25,1.109375 0,0.34375 0.28125,0.625 0.65625,0.625 0.734375,0 0.859375,-0.578125 1.078125,-1.46875 l 1.5,-5.921875 c 0.04687,-0.1875 1.328125,-3.296875 4.0625,-3.296875 0.984375,0 1.328125,0.75 1.328125,1.734375 0,1.390625 -0.96875,4.09375 -1.5,5.578125 -0.234375,0.59375 -0.359375,0.921875 -0.359375,1.359375 0,1.125 0.765625,2.015625 1.96875,2.015625 C 19.625,0.25 20.5,-3.390625 20.5,-3.546875 c 0,-0.125 -0.109375,-0.21875 -0.25,-0.21875 -0.234375,0 -0.25,0.078125 -0.375,0.5 C 19.296875,-1.28125 18.390625,-0.25 17.390625,-0.25 17.15625,-0.25 16.75,-0.265625 16.75,-1.0625 c 0,-0.640625 0.296875,-1.4375 0.40625,-1.71875 0.4375,-1.1875 1.546875,-4.109375 1.546875,-5.546875 0,-1.484375 -0.859375,-2.59375 -2.75,-2.59375 -1.65625,0 -3,0.9375 -3.984375,2.390625 -0.07813,-1.328125 -0.890625,-2.390625 -2.75,-2.390625 -2.203125,0 -3.375,1.546875 -3.8125,2.171875 -0.078125,-1.40625 -1.09375,-2.171875 -2.1875,-2.171875 -0.71875,0 -1.28125,0.34375 -1.75,1.28125 -0.453125,0.890625 -0.796875,2.40625 -0.796875,2.5 0,0.109375 0.09375,0.234375 0.265625,0.234375 0.203125,0 0.234375,-0.03125 0.375,-0.609375 0.375,-1.453125 0.84375,-2.921875 1.828125,-2.921875 0.578125,0 0.78125,0.40625 0.78125,1.140625 0,0.546875 -0.25,1.515625 -0.421875,2.28125 L 2.796875,-4.34375 c -0.09375,0.484375 -0.375,1.59375 -0.5,2.046875 C 2.125,-1.65625 1.859375,-0.5 1.859375,-0.375 1.859375,-0.03125 2.125,0.25 2.5,0.25 c 0.296875,0 0.640625,-0.15625 0.84375,-0.515625 0.046875,-0.125 0.28125,-1 0.390625,-1.5 l 0.546875,-2.21875 z m 0,0"
             id="path41" />
        </g>
      </g>
      <g
         fill="#000000"
         fill-opacity="1"
         id="g27"
         transform="matrix(0.352778,0,0,0.352778,-0.237023,0.0881504)">
        <g
           id="use25"
           transform="translate(21.229,14.39)">
          <path
             d="m 4.875,-2.46875 c 0,-0.078125 -0.078125,-0.15625 -0.171875,-0.15625 -0.15625,0 -0.171875,0.0625 -0.265625,0.359375 -0.4375,1.5625 -1.15625,2.09375 -1.71875,2.09375 -0.203125,0 -0.453125,-0.046875 -0.453125,-0.5625 0,-0.46875 0.21875,-0.984375 0.40625,-1.5 L 3.875,-5.4375 c 0.046875,-0.140625 0.171875,-0.453125 0.171875,-0.78125 0,-0.71875 -0.515625,-1.375 -1.359375,-1.375 -1.578125,0 -2.21875,2.5 -2.21875,2.640625 0,0.0625 0.0625,0.15625 0.1875,0.15625 0.15625,0 0.171875,-0.078125 0.234375,-0.3125 C 1.3125,-6.5625 1.96875,-7.25 2.640625,-7.25 c 0.15625,0 0.4375,0.015625 0.4375,0.5625 0,0.453125 -0.21875,1.015625 -0.359375,1.40625 L 1.515625,-2.078125 C 1.40625,-1.8125 1.3125,-1.53125 1.3125,-1.21875 c 0,0.765625 0.53125,1.390625 1.359375,1.390625 C 4.25,0.171875 4.875,-2.34375 4.875,-2.46875 Z M 4.734375,-10.75 c 0,-0.25 -0.203125,-0.5625 -0.578125,-0.5625 -0.40625,0 -0.84375,0.375 -0.84375,0.828125 0,0.421875 0.359375,0.5625 0.5625,0.5625 0.46875,0 0.859375,-0.4375 0.859375,-0.828125 z m 0,0"
             id="path45" />
        </g>
      </g>
      <g
         clip-path="url(#clipPath3690)"
         id="g35"
         transform="matrix(0.352778,0,0,0.352778,-0.237023,0.0881504)">
        <g
           fill="#000000"
           fill-opacity="1"
           id="g33">
          <g
             id="use29"
             transform="translate(26.98,14.39)">
            <path
               d="m 6.484375,-4 h 4.5625 c 0.25,0 0.546875,0 0.546875,-0.28125 0,-0.3125 -0.28125,-0.3125 -0.546875,-0.3125 h -4.5625 v -4.5625 c 0,-0.25 0,-0.53125 -0.28125,-0.53125 -0.3125,0 -0.3125,0.265625 -0.3125,0.53125 v 4.5625 h -4.5625 c -0.25,0 -0.53125,0 -0.53125,0.28125 C 0.796875,-4 1.0625,-4 1.328125,-4 h 4.5625 v 4.5625 c 0,0.25 0,0.546875 0.296875,0.546875 0.296875,0 0.296875,-0.28125 0.296875,-0.546875 z m 0,0"
               id="path49" />
          </g>
          <g
             id="use31"
             transform="translate(39.371647,14.39)">
            <path
               d="m 4.578125,-11 c 0,-0.359375 -0.015625,-0.375 -0.25,-0.375 -0.671875,0.796875 -1.6875,1.0625 -2.65625,1.09375 -0.046875,0 -0.140625,0 -0.15625,0.03125 C 1.5,-10.203125 1.5,-10.171875 1.5,-9.8125 c 0.53125,0 1.421875,-0.109375 2.109375,-0.515625 V -1.25 c 0,0.59375 -0.03125,0.796875 -1.515625,0.796875 H 1.578125 V 0 c 0.828125,-0.015625 1.6875,-0.03125 2.515625,-0.03125 0.828125,0 1.6875,0.015625 2.515625,0.03125 V -0.453125 H 6.09375 c -1.484375,0 -1.515625,-0.1875 -1.515625,-0.796875 z m 0,0"
               id="path53" />
          </g>
        </g>
      </g>
    </g>
    <g
       inkscape:label=""
       transform="matrix(1.3892811,0,0,1.3892811,274.01924,80.193697)"
       id="g12914">
      <g
         fill="#000000"
         fill-opacity="1"
         id="g12894"
         transform="matrix(0.352778,0,0,0.352778,-0.237023,0.0881504)">
        <g
           id="g12892"
           transform="translate(0,10.672)">
          <path
             d="M 8.453125,-1.4375 C 8.765625,-0.046875 9.96875,0.25 10.5625,0.25 c 0.78125,0 1.375,-0.515625 1.78125,-1.359375 0.421875,-0.890625 0.734375,-2.359375 0.734375,-2.4375 0,-0.125 -0.09375,-0.21875 -0.234375,-0.21875 -0.234375,0 -0.25,0.125 -0.359375,0.5 -0.4375,1.703125 -0.890625,3.015625 -1.875,3.015625 -0.75,0 -0.75,-0.8125 -0.75,-1.140625 0,-0.5625 0.078125,-0.8125 0.328125,-1.859375 0.171875,-0.671875 0.34375,-1.328125 0.5,-2.03125 l 1.015625,-4.03125 c 0.171875,-0.625 0.171875,-0.671875 0.171875,-0.75 0,-0.375 -0.296875,-0.625 -0.671875,-0.625 -0.71875,0 -0.890625,0.625 -1.046875,1.25 -0.25,0.96875 -1.578125,6.296875 -1.75,7.15625 -0.03125,0 -1,2.03125 -2.8125,2.03125 -1.28125,0 -1.53125,-1.109375 -1.53125,-2.03125 0,-1.40625 0.703125,-3.390625 1.34375,-5.046875 0.296875,-0.796875 0.421875,-1.125 0.421875,-1.625 0,-1.0625 -0.765625,-1.96875 -1.96875,-1.96875 -2.265625,0 -3.1875,3.59375 -3.1875,3.78125 0,0.109375 0.09375,0.234375 0.265625,0.234375 0.234375,0 0.25,-0.109375 0.34375,-0.453125 0.609375,-2.125 1.5625,-3.078125 2.515625,-3.078125 0.25,0 0.640625,0.03125 0.640625,0.828125 0,0.640625 -0.28125,1.359375 -0.640625,2.296875 -1.09375,2.953125 -1.21875,3.890625 -1.21875,4.640625 C 2.578125,-0.15625 4.484375,0.25 5.5,0.25 c 1.59375,0 2.453125,-1.09375 2.953125,-1.6875 z m 0,0"
             id="path12890" />
        </g>
      </g>
      <g
         fill="#000000"
         fill-opacity="1"
         id="g12900"
         transform="matrix(0.352778,0,0,0.352778,-0.237023,0.0881504)">
        <g
           id="g12898"
           transform="translate(13.813,14.39)">
          <path
             d="m 4.875,-2.46875 c 0,-0.078125 -0.078125,-0.15625 -0.171875,-0.15625 -0.15625,0 -0.171875,0.0625 -0.265625,0.359375 -0.4375,1.5625 -1.15625,2.09375 -1.71875,2.09375 -0.203125,0 -0.453125,-0.046875 -0.453125,-0.5625 0,-0.46875 0.21875,-0.984375 0.40625,-1.5 L 3.875,-5.4375 c 0.046875,-0.140625 0.171875,-0.453125 0.171875,-0.78125 0,-0.71875 -0.515625,-1.375 -1.359375,-1.375 -1.578125,0 -2.21875,2.5 -2.21875,2.640625 0,0.0625 0.0625,0.15625 0.1875,0.15625 0.15625,0 0.171875,-0.078125 0.234375,-0.3125 C 1.3125,-6.5625 1.96875,-7.25 2.640625,-7.25 c 0.15625,0 0.4375,0.015625 0.4375,0.5625 0,0.453125 -0.21875,1.015625 -0.359375,1.40625 L 1.515625,-2.078125 C 1.40625,-1.8125 1.3125,-1.53125 1.3125,-1.21875 c 0,0.765625 0.53125,1.390625 1.359375,1.390625 C 4.25,0.171875 4.875,-2.34375 4.875,-2.46875 Z M 4.734375,-10.75 c 0,-0.25 -0.203125,-0.5625 -0.578125,-0.5625 -0.40625,0 -0.84375,0.375 -0.84375,0.828125 0,0.421875 0.359375,0.5625 0.5625,0.5625 0.46875,0 0.859375,-0.4375 0.859375,-0.828125 z m 0,0"
             id="path12896" />
        </g>
      </g>
      <g
         clip-path="url(#clipPath67)"
         id="g12912"
         transform="matrix(0.352778,0,0,0.352778,-0.237023,0.0881504)">
        <g
           fill="#000000"
           fill-opacity="1"
           id="g12910">
          <g
             id="g12904"
             transform="translate(19.563999,14.39)">
            <path
               d="m 6.484375,-4 h 4.5625 c 0.25,0 0.546875,0 0.546875,-0.28125 0,-0.3125 -0.28125,-0.3125 -0.546875,-0.3125 h -4.5625 v -4.5625 c 0,-0.25 0,-0.53125 -0.28125,-0.53125 -0.3125,0 -0.3125,0.265625 -0.3125,0.53125 v 4.5625 h -4.5625 c -0.25,0 -0.53125,0 -0.53125,0.28125 C 0.796875,-4 1.0625,-4 1.328125,-4 h 4.5625 v 4.5625 c 0,0.25 0,0.546875 0.296875,0.546875 0.296875,0 0.296875,-0.28125 0.296875,-0.546875 z m 0,0"
               id="path12902" />
          </g>
          <g
             id="g12908"
             transform="translate(31.955645,14.39)">
            <path
               d="m 4.578125,-11 c 0,-0.359375 -0.015625,-0.375 -0.25,-0.375 -0.671875,0.796875 -1.6875,1.0625 -2.65625,1.09375 -0.046875,0 -0.140625,0 -0.15625,0.03125 C 1.5,-10.203125 1.5,-10.171875 1.5,-9.8125 c 0.53125,0 1.421875,-0.109375 2.109375,-0.515625 V -1.25 c 0,0.59375 -0.03125,0.796875 -1.515625,0.796875 H 1.578125 V 0 c 0.828125,-0.015625 1.6875,-0.03125 2.515625,-0.03125 0.828125,0 1.6875,0.015625 2.515625,0.03125 V -0.453125 H 6.09375 c -1.484375,0 -1.515625,-0.1875 -1.515625,-0.796875 z m 0,0"
               id="path12906" />
          </g>
        </g>
      </g>
    </g>
    <g
       inkscape:label=""
       transform="matrix(1.5554982,0,0,1.5554982,123.86091,113.15006)"
       id="g15633">
      <g
         fill="#000000"
         fill-opacity="1"
         id="g50"
         transform="matrix(0.352778,0,0,0.352778,-0.341753,-0.0586935)">
        <g
           id="use48"
           transform="translate(0,26.117001)">
          <path
             d="m 10.921875,-10.6875 c 0,-0.109375 -0.09375,-0.21875 -0.21875,-0.21875 -0.203125,0 -1.15625,0.890625 -1.640625,1.765625 -0.4375,-1.125 -1.203125,-1.78125 -2.265625,-1.78125 -2.8125,0 -5.828125,3.609375 -5.828125,7.28125 0,2.453125 1.4375,3.890625 3.125,3.890625 1.3125,0 2.40625,-1 2.921875,-1.5625 L 7.03125,-1.28125 6.09375,2.421875 5.875,3.328125 C 5.65625,4.0625 5.28125,4.0625 4.109375,4.09375 c -0.265625,0 -0.515625,0 -0.515625,0.46875 0,0.171875 0.140625,0.25 0.328125,0.25 0.34375,0 0.78125,-0.046875 1.140625,-0.046875 h 2.515625 c 0.375,0 0.796875,0.046875 1.171875,0.046875 0.140625,0 0.4375,0 0.4375,-0.46875 0,-0.25 -0.1875,-0.25 -0.5625,-0.25 -1.171875,0 -1.234375,-0.171875 -1.234375,-0.375 0,-0.125 0.015625,-0.15625 0.09375,-0.46875 z M 7.4375,-2.953125 C 7.3125,-2.53125 7.3125,-2.484375 6.96875,-2 c -0.546875,0.6875 -1.640625,1.75 -2.8125,1.75 -1.015625,0 -1.578125,-0.921875 -1.578125,-2.375 0,-1.359375 0.765625,-4.140625 1.234375,-5.1875 0.84375,-1.734375 2.015625,-2.625 2.984375,-2.625 1.625,0 1.953125,2.03125 1.953125,2.234375 0,0.03125 -0.078125,0.34375 -0.09375,0.390625 z m 0,0"
             id="path120" />
        </g>
      </g>
      <g
         fill="#000000"
         fill-opacity="1"
         id="g54"
         transform="matrix(0.352778,0,0,0.352778,-0.341753,-0.0586935)">
        <g
           id="use52"
           transform="translate(11.65,13.29)">
          <path
             d="m 5.265625,4.203125 c 0,-0.015625 0,-0.046875 -0.046875,-0.109375 -0.796875,-0.8125 -2.90625,-3.015625 -2.90625,-8.375 0,-5.375 2.078125,-7.5625 2.921875,-8.421875 0,-0.01563 0.03125,-0.0625 0.03125,-0.109375 0,-0.04687 -0.046875,-0.07813 -0.125,-0.07813 -0.1875,0 -1.640625,1.265625 -2.484375,3.15625 -0.859375,1.921875 -1.109375,3.78125 -1.109375,5.421875 0,1.25 0.125,3.34375 1.15625,5.5625 0.828125,1.796875 2.234375,3.0625 2.4375,3.0625 0.09375,0 0.125,-0.046875 0.125,-0.109375 z m 0,0"
             id="path124" />
        </g>
      </g>
      <g
         fill="#000000"
         fill-opacity="1"
         id="g58"
         transform="matrix(0.352778,0,0,0.352778,-0.341753,-0.0586935)">
        <g
           id="use56"
           transform="translate(17.747,13.29)">
          <path
             d="m 6.734375,-6.46875 c -0.328125,0 -0.484375,0 -0.71875,0.203125 -0.109375,0.078125 -0.296875,0.34375 -0.296875,0.625 0,0.34375 0.25,0.546875 0.578125,0.546875 0.421875,0 0.890625,-0.34375 0.890625,-1.03125 0,-0.828125 -0.796875,-1.46875 -1.984375,-1.46875 -2.265625,0 -4.515625,2.46875 -4.515625,4.90625 0,1.5 0.9375,2.859375 2.6875,2.859375 2.34375,0 3.828125,-1.828125 3.828125,-2.046875 0,-0.109375 -0.109375,-0.1875 -0.171875,-0.1875 -0.0625,0 -0.078125,0.015625 -0.234375,0.171875 -1.09375,1.453125 -2.734375,1.71875 -3.390625,1.71875 -1.1875,0 -1.5625,-1.03125 -1.5625,-1.890625 0,-0.609375 0.296875,-2.28125 0.90625,-3.453125 C 3.203125,-6.3125 4.125,-7.25 5.21875,-7.25 c 0.21875,0 1.171875,0.03125 1.515625,0.78125 z m 0,0"
             id="path128" />
        </g>
      </g>
      <g
         fill="#000000"
         fill-opacity="1"
         id="g62"
         transform="matrix(0.352778,0,0,0.352778,-0.341753,-0.0586935)">
        <g
           id="use60"
           transform="translate(25.002001,13.29)">
          <path
             d="m 4.53125,-4.28125 c 0,-1.25 -0.125,-3.34375 -1.15625,-5.5625 -0.828125,-1.796875 -2.234375,-3.046875 -2.4375,-3.046875 -0.0625,0 -0.125,0.01563 -0.125,0.09375 0,0.03125 0.015625,0.0625 0.03125,0.09375 0.828125,0.859375 2.921875,3.046875 2.921875,8.390625 0,5.375 -2.078125,7.5625 -2.921875,8.421875 C 0.828125,4.15625 0.8125,4.171875 0.8125,4.203125 0.8125,4.28125 0.875,4.3125 0.9375,4.3125 1.125,4.3125 2.578125,3.03125 3.421875,1.140625 4.28125,-0.78125 4.53125,-2.640625 4.53125,-4.28125 Z m 0,0"
             id="path132" />
        </g>
      </g>
      <g
         fill="#000000"
         fill-opacity="1"
         id="g66"
         transform="matrix(0.352778,0,0,0.352778,-0.341753,-0.0586935)">
        <g
           id="use64"
           transform="translate(10.761,32.691002)">
          <path
             d="m 4.875,-2.46875 c 0,-0.078125 -0.078125,-0.15625 -0.171875,-0.15625 -0.15625,0 -0.171875,0.0625 -0.265625,0.359375 -0.4375,1.5625 -1.15625,2.09375 -1.71875,2.09375 -0.203125,0 -0.453125,-0.046875 -0.453125,-0.5625 0,-0.46875 0.21875,-0.984375 0.40625,-1.5 L 3.875,-5.4375 c 0.046875,-0.140625 0.171875,-0.453125 0.171875,-0.78125 0,-0.71875 -0.515625,-1.375 -1.359375,-1.375 -1.578125,0 -2.21875,2.5 -2.21875,2.640625 0,0.0625 0.0625,0.15625 0.1875,0.15625 0.15625,0 0.171875,-0.078125 0.234375,-0.3125 C 1.3125,-6.5625 1.96875,-7.25 2.640625,-7.25 c 0.15625,0 0.4375,0.015625 0.4375,0.5625 0,0.453125 -0.21875,1.015625 -0.359375,1.40625 L 1.515625,-2.078125 C 1.40625,-1.8125 1.3125,-1.53125 1.3125,-1.21875 c 0,0.765625 0.53125,1.390625 1.359375,1.390625 C 4.25,0.171875 4.875,-2.34375 4.875,-2.46875 Z M 4.734375,-10.75 c 0,-0.25 -0.203125,-0.5625 -0.578125,-0.5625 -0.40625,0 -0.84375,0.375 -0.84375,0.828125 0,0.421875 0.359375,0.5625 0.5625,0.5625 0.46875,0 0.859375,-0.4375 0.859375,-0.828125 z m 0,0"
             id="path136" />
        </g>
      </g>
      <g
         fill="#000000"
         fill-opacity="1"
         id="g70"
         transform="matrix(0.352778,0,0,0.352778,-0.341753,-0.0586935)">
        <g
           id="use68"
           transform="translate(38.480999,26.117001)">
          <path
             d="m 15.9375,-7.953125 c 0.375,0 0.734375,0 0.734375,-0.421875 0,-0.453125 -0.421875,-0.453125 -0.84375,-0.453125 H 1.984375 c -0.421875,0 -0.84375,0 -0.84375,0.453125 0,0.421875 0.375,0.421875 0.75,0.421875 z m -0.109375,4.40625 c 0.421875,0 0.84375,0 0.84375,-0.4375 0,-0.421875 -0.359375,-0.421875 -0.734375,-0.421875 H 1.890625 c -0.375,0 -0.75,0 -0.75,0.421875 0,0.4375 0.421875,0.4375 0.84375,0.4375 z m 0,0"
             id="path140" />
        </g>
      </g>
      <g
         fill="#000000"
         fill-opacity="1"
         id="g74"
         transform="matrix(0.352778,0,0,0.352778,-0.341753,-0.0586935)">
        <g
           id="use72"
           transform="translate(64.404999,13.9)">
          <path
             d="M 7.625,-8.65625 C 7.625,-10.421875 7.078125,-12.125 5.671875,-12.125 3.25,-12.125 0.6875,-7.078125 0.6875,-3.28125 0.6875,-2.5 0.859375,0.171875 2.671875,0.171875 5.015625,0.171875 7.625,-4.75 7.625,-8.65625 Z m -5.21875,2.421875 c 0.265625,-1.015625 0.625,-2.46875 1.3125,-3.6875 0.5625,-1.03125 1.171875,-1.859375 1.921875,-1.859375 0.578125,0 0.953125,0.484375 0.953125,2.140625 0,0.625 -0.046875,1.484375 -0.546875,3.40625 z M 5.921875,-5.71875 C 5.5,-4.03125 5.125,-2.9375 4.515625,-1.859375 c -0.5,0.875 -1.109375,1.6875 -1.828125,1.6875 -0.53125,0 -0.96875,-0.40625 -0.96875,-2.125 0,-1.109375 0.28125,-2.28125 0.546875,-3.421875 z m 0,0"
             id="path144" />
        </g>
      </g>
      <g
         fill="#000000"
         fill-opacity="1"
         id="g78"
         transform="matrix(0.352778,0,0,0.352778,-0.341753,-0.0586935)">
        <g
           id="use76"
           transform="translate(72.728996,7.0570002)">
          <path
             d="M 4.765625,-2.765625 H 8.0625 c 0.171875,0 0.390625,0 0.390625,-0.203125 0,-0.234375 -0.203125,-0.234375 -0.390625,-0.234375 H 4.765625 V -6.5 c 0,-0.171875 0,-0.390625 -0.21875,-0.390625 -0.21875,0 -0.21875,0.203125 -0.21875,0.390625 v 3.296875 H 1.03125 c -0.171875,0 -0.390625,0 -0.390625,0.21875 0,0.21875 0.203125,0.21875 0.390625,0.21875 H 4.328125 V 0.53125 c 0,0.171875 0,0.390625 0.21875,0.390625 0.21875,0 0.21875,-0.203125 0.21875,-0.390625 z m 0,0"
             id="path148" />
        </g>
      </g>
      <g
         fill="#000000"
         fill-opacity="1"
         id="g82"
         transform="matrix(0.352778,0,0,0.352778,-0.341753,-0.0586935)">
        <g
           id="use80"
           transform="translate(72.260002,18.486)">
          <path
             d="m 3.375,-1.703125 c 0,-0.0625 -0.046875,-0.109375 -0.109375,-0.109375 -0.109375,0 -0.125,0.03125 -0.1875,0.234375 -0.3125,1.09375 -0.796875,1.453125 -1.1875,1.453125 -0.140625,0 -0.3125,-0.03125 -0.3125,-0.390625 0,-0.328125 0.140625,-0.671875 0.28125,-1.03125 L 2.6875,-3.78125 c 0.03125,-0.09375 0.125,-0.3125 0.125,-0.53125 0,-0.5 -0.359375,-0.953125 -0.953125,-0.953125 -1.09375,0 -1.53125,1.734375 -1.53125,1.828125 0,0.046875 0.046875,0.109375 0.125,0.109375 0.109375,0 0.125,-0.046875 0.171875,-0.21875 0.28125,-1 0.734375,-1.484375 1.203125,-1.484375 0.109375,0 0.3125,0.015625 0.3125,0.390625 0,0.3125 -0.15625,0.703125 -0.25,0.96875 l -0.84375,2.21875 C 0.984375,-1.25 0.90625,-1.0625 0.90625,-0.84375 c 0,0.53125 0.375,0.96875 0.953125,0.96875 1.09375,0 1.515625,-1.75 1.515625,-1.828125 z m -0.09375,-5.75 c 0,-0.1875 -0.140625,-0.40625 -0.40625,-0.40625 -0.265625,0 -0.578125,0.265625 -0.578125,0.578125 0,0.296875 0.25,0.390625 0.390625,0.390625 0.328125,0 0.59375,-0.3125 0.59375,-0.5625 z m 0,0"
             id="path152" />
        </g>
      </g>
      <g
         fill="#000000"
         fill-opacity="1"
         id="g86"
         transform="matrix(0.352778,0,0,0.352778,-0.341753,-0.0586935)">
        <g
           id="use84"
           transform="translate(82.331001,13.9)">
          <path
             d="m 11.34375,-3.953125 c 0.296875,0 0.609375,0 0.609375,-0.359375 0,-0.34375 -0.3125,-0.34375 -0.609375,-0.34375 h -9.3125 c -0.296875,0 -0.609375,0 -0.609375,0.34375 0,0.359375 0.3125,0.359375 0.609375,0.359375 z m 0,0"
             id="path156" />
        </g>
      </g>
      <g
         fill="#000000"
         fill-opacity="1"
         id="g90"
         transform="matrix(0.352778,0,0,0.352778,-0.341753,-0.0586935)">
        <g
           id="use88"
           transform="translate(95.721001,13.9)">
          <path
             d="M 7.625,-8.65625 C 7.625,-10.421875 7.078125,-12.125 5.671875,-12.125 3.25,-12.125 0.6875,-7.078125 0.6875,-3.28125 0.6875,-2.5 0.859375,0.171875 2.671875,0.171875 5.015625,0.171875 7.625,-4.75 7.625,-8.65625 Z m -5.21875,2.421875 c 0.265625,-1.015625 0.625,-2.46875 1.3125,-3.6875 0.5625,-1.03125 1.171875,-1.859375 1.921875,-1.859375 0.578125,0 0.953125,0.484375 0.953125,2.140625 0,0.625 -0.046875,1.484375 -0.546875,3.40625 z M 5.921875,-5.71875 C 5.5,-4.03125 5.125,-2.9375 4.515625,-1.859375 c -0.5,0.875 -1.109375,1.6875 -1.828125,1.6875 -0.53125,0 -0.96875,-0.40625 -0.96875,-2.125 0,-1.109375 0.28125,-2.28125 0.546875,-3.421875 z m 0,0"
             id="path160" />
        </g>
      </g>
      <g
         fill="#000000"
         fill-opacity="1"
         id="g94"
         transform="matrix(0.352778,0,0,0.352778,-0.341753,-0.0586935)">
        <g
           id="use92"
           transform="translate(104.045,6.974)">
          <path
             d="m 7.875,-2.75 c 0.203125,0 0.421875,0 0.421875,-0.234375 0,-0.25 -0.21875,-0.25 -0.421875,-0.25 H 1.40625 c -0.203125,0 -0.421875,0 -0.421875,0.25 0,0.234375 0.21875,0.234375 0.421875,0.234375 z m 0,0"
             id="path164" />
        </g>
      </g>
      <g
         fill="#000000"
         fill-opacity="1"
         id="g98"
         transform="matrix(0.352778,0,0,0.352778,-0.341753,-0.0586935)">
        <g
           id="use96"
           transform="translate(103.577,18.486)">
          <path
             d="m 3.375,-1.703125 c 0,-0.0625 -0.046875,-0.109375 -0.109375,-0.109375 -0.109375,0 -0.125,0.03125 -0.1875,0.234375 -0.3125,1.09375 -0.796875,1.453125 -1.1875,1.453125 -0.140625,0 -0.3125,-0.03125 -0.3125,-0.390625 0,-0.328125 0.140625,-0.671875 0.28125,-1.03125 L 2.6875,-3.78125 c 0.03125,-0.09375 0.125,-0.3125 0.125,-0.53125 0,-0.5 -0.359375,-0.953125 -0.953125,-0.953125 -1.09375,0 -1.53125,1.734375 -1.53125,1.828125 0,0.046875 0.046875,0.109375 0.125,0.109375 0.109375,0 0.125,-0.046875 0.171875,-0.21875 0.28125,-1 0.734375,-1.484375 1.203125,-1.484375 0.109375,0 0.3125,0.015625 0.3125,0.390625 0,0.3125 -0.15625,0.703125 -0.25,0.96875 l -0.84375,2.21875 C 0.984375,-1.25 0.90625,-1.0625 0.90625,-0.84375 c 0,0.53125 0.375,0.96875 0.953125,0.96875 1.09375,0 1.515625,-1.75 1.515625,-1.828125 z m -0.09375,-5.75 c 0,-0.1875 -0.140625,-0.40625 -0.40625,-0.40625 -0.265625,0 -0.578125,0.265625 -0.578125,0.578125 0,0.296875 0.25,0.390625 0.390625,0.390625 0.328125,0 0.59375,-0.3125 0.59375,-0.5625 z m 0,0"
             id="path168" />
        </g>
      </g>
      <path
         fill="none"
         stroke-width="0.956"
         stroke-linecap="butt"
         stroke-linejoin="miter"
         stroke="#000000"
         stroke-opacity="1"
         stroke-miterlimit="10"
         d="M 63.4375,19.7555 H 112.875"
         id="path100"
         transform="scale(0.352778)" />
      <g
         fill="#000000"
         fill-opacity="1"
         id="g104"
         transform="matrix(0.352778,0,0,0.352778,-0.341753,-0.0586935)">
        <g
           id="use102"
           transform="translate(76.887001,34.665001)">
          <path
             d="m 6.34375,-10.59375 c 0.140625,-0.640625 0.21875,-0.671875 0.890625,-0.671875 H 8.46875 c 1.484375,0 2.578125,0.453125 2.578125,1.796875 0,0.875 -0.4375,3.40625 -3.90625,3.40625 h -1.9375 z m 2.390625,4.734375 c 2.125,-0.453125 3.796875,-1.84375 3.796875,-3.3125 0,-1.34375 -1.359375,-2.59375 -3.75,-2.59375 H 4.109375 c -0.34375,0 -0.5,0 -0.5,0.328125 0,0.171875 0.125,0.171875 0.453125,0.171875 1.03125,0 1.03125,0.140625 1.03125,0.328125 0,0.03125 0,0.140625 -0.0625,0.40625 l -2.328125,9.25 C 2.546875,-0.671875 2.515625,-0.5 1.328125,-0.5 0.9375,-0.5 0.8125,-0.5 0.8125,-0.171875 0.8125,0 1,0 1.046875,0 c 0.3125,0 0.671875,-0.03125 1,-0.03125 h 2.03125 C 4.390625,-0.03125 4.75,0 5.0625,0 5.203125,0 5.390625,0 5.390625,-0.328125 5.390625,-0.5 5.234375,-0.5 4.96875,-0.5 c -1.046875,0 -1.046875,-0.140625 -1.046875,-0.3125 0,-0.015625 0,-0.140625 0.03125,-0.265625 L 5.109375,-5.71875 H 7.1875 c 1.625,0 1.9375,1.03125 1.9375,1.609375 0,0.25 -0.171875,0.921875 -0.296875,1.375 -0.1875,0.78125 -0.234375,0.984375 -0.234375,1.3125 0,1.21875 1,1.78125 2.15625,1.78125 1.390625,0 1.984375,-1.703125 1.984375,-1.9375 0,-0.125 -0.07813,-0.171875 -0.1875,-0.171875 -0.125,0 -0.171875,0.09375 -0.203125,0.234375 -0.40625,1.21875 -1.109375,1.53125 -1.546875,1.53125 -0.4375,0 -0.703125,-0.1875 -0.703125,-0.96875 0,-0.40625 0.203125,-1.96875 0.21875,-2.0625 0.09375,-0.640625 0.09375,-0.703125 0.09375,-0.84375 0,-1.25 -1.015625,-1.78125 -1.671875,-2 z m 0,0"
             id="path172" />
        </g>
      </g>
      <g
         fill="#000000"
         fill-opacity="1"
         id="g108"
         transform="matrix(0.352778,0,0,0.352778,-0.341753,-0.0586935)">
        <g
           id="use106"
           transform="translate(89.718002,37.247002)">
          <path
             d="m 5.671875,-4.875 c -0.390625,0.0625 -0.53125,0.359375 -0.53125,0.578125 0,0.296875 0.21875,0.390625 0.390625,0.390625 0.359375,0 0.609375,-0.3125 0.609375,-0.640625 0,-0.5 -0.578125,-0.71875 -1.078125,-0.71875 -0.71875,0 -1.125,0.71875 -1.234375,0.9375 -0.28125,-0.890625 -1.015625,-0.9375 -1.234375,-0.9375 -1.21875,0 -1.859375,1.5625 -1.859375,1.828125 0,0.046875 0.046875,0.109375 0.125,0.109375 0.09375,0 0.125,-0.078125 0.140625,-0.125 0.40625,-1.328125 1.21875,-1.578125 1.5625,-1.578125 0.53125,0 0.640625,0.5 0.640625,0.78125 0,0.265625 -0.078125,0.546875 -0.21875,1.125 L 2.578125,-1.5 c -0.171875,0.71875 -0.515625,1.375 -1.15625,1.375 -0.0625,0 -0.359375,0 -0.609375,-0.15625 C 1.25,-0.359375 1.34375,-0.71875 1.34375,-0.859375 1.34375,-1.09375 1.15625,-1.25 0.9375,-1.25 c -0.296875,0 -0.609375,0.265625 -0.609375,0.640625 0,0.5 0.5625,0.734375 1.078125,0.734375 0.578125,0 0.984375,-0.453125 1.234375,-0.953125 C 2.828125,-0.125 3.4375,0.125 3.875,0.125 5.09375,0.125 5.734375,-1.453125 5.734375,-1.703125 5.734375,-1.765625 5.6875,-1.8125 5.625,-1.8125 5.515625,-1.8125 5.5,-1.75 5.46875,-1.65625 5.140625,-0.609375 4.453125,-0.125 3.90625,-0.125 3.484375,-0.125 3.265625,-0.4375 3.265625,-0.921875 3.265625,-1.1875 3.3125,-1.375 3.5,-2.15625 L 3.921875,-3.796875 C 4.09375,-4.5 4.5,-5.03125 5.0625,-5.03125 c 0.015625,0 0.359375,0 0.609375,0.15625 z m 0,0"
             id="path176" />
        </g>
      </g>
      <g
         clip-path="url(#clipPath3139)"
         id="g114"
         transform="matrix(0.352778,0,0,0.352778,-0.341753,-0.0586935)">
        <g
           fill="#000000"
           fill-opacity="1"
           id="g112">
          <g
             id="use110"
             transform="translate(96.370003,40.966999)">
            <path
               d="m 3.375,-1.703125 c 0,-0.0625 -0.046875,-0.109375 -0.109375,-0.109375 -0.109375,0 -0.125,0.03125 -0.1875,0.234375 -0.3125,1.09375 -0.796875,1.453125 -1.1875,1.453125 -0.140625,0 -0.3125,-0.03125 -0.3125,-0.390625 0,-0.328125 0.140625,-0.671875 0.28125,-1.03125 L 2.6875,-3.78125 c 0.03125,-0.09375 0.125,-0.3125 0.125,-0.53125 0,-0.5 -0.359375,-0.953125 -0.953125,-0.953125 -1.09375,0 -1.53125,1.734375 -1.53125,1.828125 0,0.046875 0.046875,0.109375 0.125,0.109375 0.109375,0 0.125,-0.046875 0.171875,-0.21875 0.28125,-1 0.734375,-1.484375 1.203125,-1.484375 0.109375,0 0.3125,0.015625 0.3125,0.390625 0,0.3125 -0.15625,0.703125 -0.25,0.96875 l -0.84375,2.21875 C 0.984375,-1.25 0.90625,-1.0625 0.90625,-0.84375 c 0,0.53125 0.375,0.96875 0.953125,0.96875 1.09375,0 1.515625,-1.75 1.515625,-1.828125 z m -0.09375,-5.75 c 0,-0.1875 -0.140625,-0.40625 -0.40625,-0.40625 -0.265625,0 -0.578125,0.265625 -0.578125,0.578125 0,0.296875 0.25,0.390625 0.390625,0.390625 0.328125,0 0.59375,-0.3125 0.59375,-0.5625 z m 0,0"
               id="path180" />
          </g>
        </g>
      </g>
    </g>
  </g>
</svg>
